<?xml version="1.0" encoding="UTF-8"?><svg id="Layer_1" xmlns="http://www.w3.org/2000/svg" viewBox="0 0 659.76 815"><defs><style>.cls-1{fill:#00ff30;}.cls-2{font-family:TimesNewRomanPSMT, 'Times New Roman';font-size:457.02px;}.cls-3{fill:#ff7122;}.cls-4{fill:#ffe2a9;opacity:.21;}.cls-5{fill:#fff;opacity:.74;}.cls-6{fill:red;}</style></defs><path class="cls-1" d="M524.65,0c-28.03,70.07-64.6,86.24-88.89,88.17-29.1,2.32-56.48,15.18-75.58,37.26-30.88,35.71-29.45,68.08-20.55,81.4-3.82,5.49-8.71,9.92-12.59,12.93-19.14-57.31-23.27-103.33-23.27-103.33h-49.35c60.37,74.74,68.99,143.74,71.87,152.36h20.12c-6.22-13.44-11.57-26.79-16.15-39.69,5.33-6.45,11.58-12.28,16.26-16.34,10.76,3.91,24.37,4,38.74,1.92,66.35-9.61,119.73-59.42,136.04-124.45,13.53-53.94,3.34-90.24,3.34-90.24Z"/><path class="cls-6" d="M659.76,521.77c0-161.95-98.46-293.23-219.92-293.23-31.26,0-60.99,8.7-87.91,24.37-13.86,8.07-30.24,8.07-44.11,0-26.92-15.67-56.65-24.37-87.91-24.37C98.46,228.54,0,359.83,0,521.77c0,86.03,27.79,163.41,72.05,217.05H587.72c44.26-53.64,72.05-131.02,72.05-217.05Z"/><text class="cls-2" transform="translate(155.24 659.06)"><tspan x="0" y="0">G</tspan></text><path class="cls-4" d="M606.95,509.31c5.92,106.07-32.33,194.46-85.44,197.42-53.11,2.96-24.89-84.87-30.81-190.94-5.92-106.07-43.73-190.21,9.38-193.18,53.11-2.96,100.95,80.62,106.87,186.69Z"/><path class="cls-5" d="M495.9,91.99c-8.58,13.59-25.68,22.36-61.81,38.81s-64.39,51.8-68.99,41.68,4.01-47.88,43.12-54.62c41.68-7.19,104.93-53.18,87.68-25.87Z"/><path class="cls-6" d="M220.16,815c23.97,0,47.05-5.12,68.65-14.57,26.61-11.65,56.01-11.65,82.62,0,21.6,9.46,44.68,14.57,68.65,14.57,56.94,0,108.82-28.85,147.87-76.18H72.29c39.06,47.33,90.94,76.18,147.87,76.18Z"/><path class="cls-3" d="M219.92,815c23.97,0,47.05-5.12,68.65-14.57,26.61-11.65,56.01-11.65,82.62,0,21.6,9.46,44.68,14.57,68.65,14.57,56.94,0,108.82-28.85,147.87-76.18H72.05c39.06,47.33,90.94,76.18,147.87,76.18Z"/></svg>